<?xml version="1.0" encoding="iso-8859-1"?>
<!-- Generator: Adobe Illustrator 19.0.0, SVG Export Plug-In . SVG Version: 6.00 Build 0)  -->
<svg version="1.1" id="Capa_1" xmlns="http://www.w3.org/2000/svg" xmlns:xlink="http://www.w3.org/1999/xlink" x="0px" y="0px"
	 viewBox="0 0 497.694 497.694" style="enable-background:new 0 0 497.694 497.694;" xml:space="preserve">
<g>
	<g>
		<g>
			<path d="M150.588,144.565H56.471C25.6,144.565,0,173.176,0,208.565v159.624c0,4.518,3.012,7.529,7.529,7.529h33.129v95.624
				c0,14.306,12.047,25.6,26.353,25.6H140.8c14.306,0,25.6-11.294,25.6-25.6v-95.624h33.129c4.518,0,7.529-3.012,7.529-7.529
				V208.565C207.059,173.176,181.459,144.565,150.588,144.565z M192,360.659h-25.6v-81.318c0-4.518-3.012-7.529-7.529-7.529
				c-4.518,0-7.529,3.012-7.529,7.529v192c0,6.023-4.518,10.541-10.541,10.541h-29.365V373.459c0-4.518-3.012-7.529-7.529-7.529
				s-7.529,3.012-7.529,7.529v108.424H67.012c-6.024,0-10.541-4.518-10.541-10.541v-192c0-4.518-3.012-7.529-7.529-7.529
				s-7.529,3.012-7.529,7.529v81.318H15.059V208.565c0-27.106,18.823-48.941,41.412-48.941h94.118
				c22.588,0,41.412,21.835,41.412,48.941V360.659z"/>
			<path d="M103.153,124.988c34.635,0,62.494-27.859,62.494-62.494C165.647,27.859,137.788,0,103.153,0
				C68.518,0,40.659,27.859,40.659,62.494C40.659,97.129,69.271,124.988,103.153,124.988z M103.153,15.059
				c26.353,0,47.435,21.082,47.435,47.435c0,26.353-21.082,47.435-47.435,47.435c-26.353,0-47.435-21.082-47.435-47.435
				C55.718,36.141,77.553,15.059,103.153,15.059z"/>
			<path d="M469.082,36.141H261.271c-15.812,0-28.612,12.8-28.612,28.612v404.329c0,15.812,12.8,28.612,28.612,28.612h207.812
				c15.812,0,28.612-12.8,28.612-28.612V64.753C496.941,48.941,484.141,36.141,469.082,36.141z M482.635,469.082h-0.753
				c0,7.529-6.023,13.553-13.553,13.553H261.271c-7.529,0-13.553-6.023-13.553-13.553V64.753c0-7.529,6.023-13.553,13.553-13.553
				h207.812c7.529,0,13.553,6.023,13.553,13.553V469.082z"/>
			<path d="M453.271,102.4H329.035c-3.012-12.8-15.059-22.588-29.365-22.588c-16.565,0-30.118,13.553-30.118,30.118
				c0,16.565,13.553,30.118,30.118,30.118c14.306,0,25.6-9.788,29.365-22.588h124.988c4.518,0,7.529-3.012,7.529-7.529
				C460.8,105.412,457.788,102.4,453.271,102.4z M299.671,124.988c-8.282,0-15.059-6.776-15.059-15.059
				c0-8.282,6.776-15.059,15.059-15.059s15.059,6.776,15.059,15.059C314.729,118.212,307.953,124.988,299.671,124.988z"/>
			<path d="M453.271,182.212H329.035c-3.012-12.8-15.059-22.588-29.365-22.588c-16.565,0-30.118,13.553-30.118,30.118
				c0,16.565,13.553,30.118,30.118,30.118c14.306,0,25.6-9.788,29.365-22.588h124.988c4.518,0,7.529-3.012,7.529-7.529
				C461.553,185.224,457.788,182.212,453.271,182.212z M299.671,204.8c-8.282,0-15.059-6.776-15.059-15.059
				c0-8.282,6.776-15.059,15.059-15.059s15.059,6.776,15.059,15.059C314.729,198.024,307.953,204.8,299.671,204.8z"/>
			<path d="M453.271,262.776H329.035c-3.012-12.8-15.059-22.588-29.365-22.588c-16.565,0-30.118,13.553-30.118,30.118
				c0,16.565,13.553,30.118,30.118,30.118c14.306,0,25.6-9.788,29.365-22.588h124.988c4.518,0,7.529-3.012,7.529-7.529
				C460.8,266.541,457.788,262.776,453.271,262.776z M299.671,285.365c-8.282,0-15.059-6.776-15.059-15.059
				s6.776-15.059,15.059-15.059s15.059,6.776,15.059,15.059S307.953,285.365,299.671,285.365z"/>
			<path d="M453.271,343.341H329.035c-3.012-12.8-15.059-22.588-29.365-22.588c-16.565,0-30.118,13.553-30.118,30.118
				c0,16.565,13.553,30.118,30.118,30.118c14.306,0,25.6-9.788,29.365-22.588h124.988c4.518,0,7.529-3.012,7.529-7.529
				S457.788,343.341,453.271,343.341z M299.671,365.929c-8.282,0-15.059-6.776-15.059-15.059c0-8.282,6.776-15.059,15.059-15.059
				s15.059,6.776,15.059,15.059C314.729,359.153,307.953,365.929,299.671,365.929z"/>
			<path d="M453.271,423.906H329.035c-3.012-12.8-15.059-22.588-29.365-22.588c-16.565,0-30.118,13.553-30.118,30.118
				c0,16.565,13.553,30.118,30.118,30.118c14.306,0,25.6-9.788,29.365-22.588h124.988c4.518,0,7.529-3.012,7.529-7.529
				C460.8,426.918,457.788,423.906,453.271,423.906z M299.671,446.494c-8.282,0-15.059-6.776-15.059-15.059
				s6.776-15.059,15.059-15.059s15.059,6.776,15.059,15.059S307.953,446.494,299.671,446.494z"/>
		</g>
	</g>
</g>
<g>
</g>
<g>
</g>
<g>
</g>
<g>
</g>
<g>
</g>
<g>
</g>
<g>
</g>
<g>
</g>
<g>
</g>
<g>
</g>
<g>
</g>
<g>
</g>
<g>
</g>
<g>
</g>
<g>
</g>
</svg>
